# xmcd
#
# Track frame offsets:
#	150
#	16830
#	37156
#
# Disc length: 808 seconds
#
# Revision: 0
# Processed by: cddbd v1.5.2PL0 Copyright (c) Steve Scherf et al.
# Submitted via: audiograbber 1.83.01
#
DISCID=1c032603
DTITLE=Bo Kaspers Orkester - Människor Som Ingen Vill Se
DYEAR=2002
DGENRE=Underfundigheter
TTITLE0=Människor som ingen vill se [radioversion]
TTITLE1=Människor som ingen vill se [lång version]
TTITLE2=Människor som ingen vill se [albumversion]
EXTD=
EXTT0=
EXTT1=
EXTT2=
PLAYORDER=
